HIERARCHY
ROOT Hips
{
	OFFSET 0.000000 0.000000 0.000000 
	CHANNELS 6 Xposition Yposition Zposition Yrotation Zrotation Xrotation 
	JOINT Lumbar
	{
		OFFSET 0.000000 0.000000 0.000000 
		CHANNELS 3 Zrotation Xrotation Yrotation
		JOINT Neck
		{
			OFFSET 0.000000 0.445665 0.000000 
			CHANNELS 3 Zrotation Xrotation Yrotation
			End Site
			{
				OFFSET 0.000000 0.227535 0.000000 
			}
		}
		JOINT RightShoulder
		{
			OFFSET 0.019635 0.377685 0.194865 
			CHANNELS 3 Zrotation Xrotation Yrotation
			JOINT RightElbow
			{
				OFFSET 0.000000 -0.243375 0.000000 
				CHANNELS 2 Zrotation Yrotation
				JOINT RightWrist
				{
					OFFSET 0.000000 -0.264825 0.000000 
					CHANNELS 2 Zrotation Xrotation
					End Site
					{
						OFFSET 0.006600 -0.176220 0.000990 
					}
				}
			}
		}
		JOINT LeftShoulder
		{
			OFFSET 0.019635 0.377685 -0.194865 
			CHANNELS 3 Zrotation Xrotation Yrotation
			JOINT LeftElbow
			{
				OFFSET 0.000000 -0.243375 0.000000 
				CHANNELS 2 Zrotation Yrotation
				JOINT LeftWrist
				{
					OFFSET 0.000000 -0.264825 0.000000 
					CHANNELS 2 Zrotation Xrotation
					End Site
					{
						OFFSET 0.006600 -0.176220 -0.000990 
					}
				}
			}
		}
	}
	JOINT RightHip
	{
		OFFSET 0.052140 -0.069960 0.075570 
		CHANNELS 3 Zrotation Xrotation Yrotation
		JOINT RightKnee
		{
			OFFSET 0.000000 -0.402270 0.000000 
			CHANNELS 1 Zrotation
			JOINT RightAnkle
			{
				OFFSET 0.000000 -0.404085 0.000000 
				CHANNELS 3 Zrotation Xrotation Yrotation
				End Site
				{
					OFFSET 0.204105 -0.089430 0.008415 
				}
			}
		}
	}
	JOINT LeftHip
	{
		OFFSET 0.052140 -0.069960 -0.075570 
		CHANNELS 3 Zrotation Xrotation Yrotation
		JOINT LeftKnee
		{
			OFFSET 0.000000 -0.402270 0.000000 
			CHANNELS 1 Zrotation
			JOINT LeftAnkle
			{
				OFFSET 0.000000 -0.404085 0.000000 
				CHANNELS 3 Zrotation Xrotation Yrotation
				End Site
				{
					OFFSET 0.204105 -0.089430 -0.008415 
				}
			}
		}
	}
}
MOTION
Frames: 33
Frame Time: 0.02
0.22968 0.08845 -1.51847 1251.89617 -47.78788 -11.09029 44.25483 5.64935 -3.47526 5.29799 0.59347 -0.83079 18.25534 7.17424 2.40335 137.62444 54.21194 10.89561 -12.88476 -14.11307 9.46164 -22.35385 124.60133 -92.17143 7.39558 -0.06967 44.73656 8.91778 -17.9285 -21.5208 -6.68264 -1.45622 -1.3541 59.82632 16.53646 -4.20756 -73.00705 -8.7307 2.83499 2.19382
0.21808 0.08687 -1.52195 1253.14011 -47.78217 -10.15818 43.87912 5.48026 -2.66514 5.19305 0.05018 -0.83079 17.98213 6.81605 2.61256 137.62443 54.11084 10.80275 -13.0505 -14.69095 9.44408 -22.12552 124.52657 -91.19028 7.04224 0.07598 43.50473 8.86554 -17.29127 -20.90181 -6.61981 -1.60073 -1.43204 61.69576 15.80284 -2.30333 -70.8954 -8.62338 2.96228 2.25935
0.20627 0.08478 -1.52506 1254.35973 -47.81014 -9.24528 43.58106 5.29621 -1.95054 5.02622 -0.50789 -0.83079 17.86515 6.41136 2.70853 137.62442 54.01864 10.70902 -13.1491 -15.52945 9.08584 -21.64773 124.43745 -91.4543 7.18074 0.06932 42.38342 8.79347 -16.59847 -20.41279 -6.51106 -1.7564 -1.51363 63.23524 15.02055 -0.32308 -67.6567 -8.53575 3.06382 2.31115
0.19451 0.08286 -1.52833 1255.57144 -47.8237 -8.33589 43.25136 5.12207 -1.19187 4.89084 -1.0579 -0.83079 17.68292 6.03451 2.8601 137.62441 53.92226 10.61463 -13.27347 -16.23935 8.89139 -21.296 124.36037 -91.09728 7.06561 0.13784 41.21163 8.73447 -15.94375 -19.86739 -6.34109 -1.90412 -1.58653 64.89578 14.2645 1.61418 -64.87963 -8.44435 3.16928 2.36504
0.18297 0.0812 -1.53161 1256.86348 -47.83552 -7.37111 42.90545 4.9332 -0.43128 4.74056 -1.61595 -0.83079 17.47071 5.62562 3.00086 137.62439 53.82582 10.52561 -13.41958 -16.99494 8.67665 -20.89646 124.2602 -90.89691 7.04667 0.19113 40.0487 8.6569 -15.22423 -19.3136 -6.49452 -2.06528 -1.68825 66.6758 13.48981 3.60867 -62.269 -8.33083 3.30552 2.43521
0.17091 0.07886 -1.53479 1257.9809 -47.85864 -6.52833 42.61319 4.77159 0.30045 4.60686 -2.15955 -0.83079 17.35902 5.27415 3.13488 137.62438 53.73232 10.42555 -13.50368 -17.71638 8.41242 -20.53283 124.20442 -90.71219 6.96347 0.23359 38.88995 8.61379 -14.63076 -18.80623 -5.99228 -2.20048 -1.73239 68.132 12.7438 5.48591 -59.07275 -8.26717 3.37292 2.46899
0.15756 0.07481 -1.53783 1258.63969 -47.89932 -6.00989 42.43672 4.69466 0.97999 4.53556 -2.66317 -0.83079 17.50298 5.08823 3.27492 137.62439 53.63901 10.28626 -13.43395 -18.27613 8.14745 -20.35816 124.27703 -90.0508 6.48879 0.31591 37.72359 8.67146 -14.39588 -18.40526 -3.4352 -2.26272 -1.60072 68.74275 12.07757 7.11837 -54.40596 -8.34883 3.24943 2.40204
0.14366 0.07006 -1.54079 1259.12063 -47.95101 -5.61534 42.31431 4.64486 1.63216 4.48322 -3.15073 -0.83079 17.74144 4.96263 3.41131 137.62441 53.54948 10.137 -13.30334 -18.79198 7.83427 -20.22345 124.39406 -89.40566 5.9514 0.38637 36.55527 8.76443 -14.29121 -18.04451 -0.26137 -2.29803 -1.41349 69.04401 11.44419 8.61116 -49.21978 -8.47806 3.05916 2.29981
0.12993 0.06559 -1.54376 1259.67147 -48.00065 -5.16977 42.17548 4.57919 2.29383 4.42107 -3.64312 -0.83079 17.92599 4.8132 3.55084 137.62442 53.46189 9.99837 -13.20022 -19.33087 7.50497 -20.04981 124.48969 -88.90849 5.50956 0.43883 35.3815 8.84117 -14.1312 -17.65826 2.45462 -2.34451 -1.26254 69.50908 10.80298 10.10088 -44.35859 -8.57728 2.9042 2.21616
0.11652 0.06129 -1.54683 1260.26698 -48.03839 -4.70295 42.00369 4.52804 2.96564 4.36069 -4.14676 -0.83079 18.15901 4.64837 3.68176 137.62443 53.35891 9.83535 -13.0971 -19.86911 7.31847 -19.95097 124.59135 -87.81767 4.80858 0.58129 34.23797 8.91865 -13.95541 -17.30637 5.89633 -2.3958 -1.06672 69.86864 10.12938 11.87045 -39.07379 -8.71176 2.72701 2.121
0.10232 0.05646 -1.54968 1260.72828 -48.10387 -4.30905 41.91396 4.4531 3.60982 4.30328 -4.62259 -0.83079 18.31546 4.52876 3.82935 137.62444 53.28908 9.71909 -12.97844 -20.39082 6.83513 -19.71439 124.6894 -87.92631 4.61712 0.5399 33.03015 9.00241 -13.841 -16.89166 8.00432 -2.43068 -0.94917 70.37404 9.53259 13.02791 -34.57299 -8.78487 2.58107 2.04193
0.08622 0.05032 -1.55203 1260.85592 -48.23634 -4.09021 42.02424 4.30737 4.19562 4.23822 -5.02836 -0.83079 18.20369 4.53476 4.03985 137.62445 53.30752 9.74832 -12.84776 -20.91084 5.47915 -19.04294 124.78172 -91.55228 5.92452 -0.04428 31.64059 9.10088 -13.89203 -16.28807 5.99337 -2.42528 -1.07863 71.399 9.13164 12.48484 -32.28465 -8.66814 2.53364 2.01343
0.06931 0.04366 -1.55416 1260.85599 -48.3975 -3.93927 42.21768 4.13641 4.7532 4.17784 -5.40604 -0.83079 18.01752 4.5813 4.26483 137.62445 53.35974 9.82215 -12.70028 -21.40823 3.83986 -18.24108 124.866 -96.33873 7.73035 -0.80517 30.18783 9.20275 -13.99545 -15.62227 2.66505 -2.40457 -1.28596 72.5748 8.80819 11.33832 -30.82411 -8.48956 2.52077 2.00282
0.05268 0.03723 -1.55634 1260.91889 -48.54982 -3.75496 42.38096 3.97623 5.31651 4.12304 -5.79471 -0.83079 17.88628 4.59963 4.4732 137.62445 53.3978 9.86668 -12.55108 -21.89284 2.37442 -17.52953 124.94425 -100.45175 9.25516 -1.45956 28.76511 9.30007 -14.05694 -14.98536 0.13532 -2.39173 -1.44569 73.65704 8.45543 10.49697 -29.04224 -8.34491 2.49505 1.9858
0.03643 0.03082 -1.55874 1260.95505 -48.68462 -3.5871 42.51251 3.82045 5.9077 4.03656 -6.19052 -0.83079 17.66773 4.66229 4.72359 137.62446 53.43034 9.9498 -12.44166 -22.47337 0.71673 -16.68819 125.0654 -105.18647 11.00745 -2.22529 27.33226 9.41403 -14.19944 -14.33901 -3.18868 -2.37386 -1.6532 74.83638 8.08059 9.52075 -27.00893 -8.17726 2.45532 1.96052
0.01918 0.02425 -1.56062 1261.01896 -48.86282 -3.39763 42.73097 3.64844 6.43584 4.01667 -6.56475 -0.83079 17.61407 4.64029 4.89013 137.62446 53.48315 9.96225 -12.24311 -22.84941 -0.60719 -16.08566 125.09412 -108.89676 12.40602 -2.80059 25.91121 9.49026 -14.18399 -13.70742 -5.21451 -2.3635 -1.78273 75.85019 7.76751 8.68325 -25.70399 -8.04232 2.45332 1.95684
-0.00045 0.0173 -1.56122 1261.19129 -49.15071 -3.14737 43.15245 3.44389 6.78465 4.18153 -6.88825 -0.83079 18.01783 4.38475 4.82101 137.62444 53.57622 9.77473 -11.8277 -22.66364 -0.9384 -16.17549 124.87574 -109.53068 12.69354 -2.8094 24.49234 9.49043 -13.71889 -13.04817 -3.02814 -2.37477 -1.65783 76.39685 7.62555 8.38448 -26.20173 -8.01107 2.55195 2.01111
-0.02109 0.01023 -1.56128 1261.39685 -49.48111 -2.86966 43.66053 3.22269 7.07287 4.4126 -7.19066 -0.83079 18.5935 4.0408 4.66772 137.62442 53.68952 9.51162 -11.3177 -22.27289 -0.9237 -16.50991 124.56419 -109.08557 12.60798 -2.62018 23.09825 9.44696 -13.09272 -12.42521 0.45362 -2.39472 -1.45557 76.76675 7.5396 8.24637 -27.4068 -8.01468 2.68661 2.08607
-0.04139 0.00327 -1.56153 1261.58757 -49.79492 -2.59355 44.1406 3.00485 7.3976 4.61217 -7.50156 -0.83079 19.09936 3.72988 4.55266 137.6244 53.79887 9.2815 -10.8362 -21.97873 -1.0686 -16.73138 124.28985 -109.11164 12.70476 -2.51953 21.72018 9.40425 -12.5398 -11.83533 3.13459 -2.41272 -1.30249 77.20358 7.41461 8.02882 -28.29602 -8.00357 2.80213 2.1501
-0.06123 -0.00398 -1.56202 1261.77212 -50.10106 -2.36523 44.57902 2.80353 7.68561 4.8186 -7.81628 -0.83079 19.5639 3.44902 4.43588 137.62438 53.88876 9.06622 -10.41971 -21.6719 -1.2145 -16.95546 124.03307 -109.26332 12.77512 -2.42998 20.21591 9.44203 -11.98768 -11.0181 6.65088 -2.42193 -1.09386 77.70847 7.34833 7.81299 -29.19419 -7.98666 2.9312 2.22161
-0.08224 -0.01063 -1.56187 1261.97974 -50.4293 -2.03069 45.11952 2.56465 8.03336 5.02549 -8.11817 -0.83079 20.16091 3.08597 4.3054 137.62436 54.02169 8.79206 -9.83999 -21.33978 -1.27097 -17.23444 123.72253 -108.87693 12.79263 -2.26933 18.99227 9.30196 -11.39607 -10.70382 8.77025 -2.4515 -0.98031 78.0196 7.17377 7.64494 -30.22584 -7.98957 3.03926 2.28169
-0.10636 -0.01573 -1.56007 1262.23789 -50.83891 -1.40363 45.95519 2.22283 8.58347 5.22563 -8.39162 -0.83079 21.03854 2.50151 4.13209 137.62436 54.28478 8.45928 -8.88565 -21.01765 -1.17809 -17.59903 123.24423 -107.31361 12.86766 -1.94944 18.44423 8.68068 -10.72492 -11.59632 6.56355 -2.5377 -1.15886 77.9076 6.67177 7.52581 -31.49355 -8.05057 3.0884 2.30978
-0.1316 -0.02021 -1.55764 1262.51931 -51.26347 -0.67218 46.88333 1.845 9.19104 5.42264 -8.65244 -0.83079 22.04925 1.84083 3.95215 137.62436 54.58771 8.05721 -7.7641 -20.67272 -1.00463 -18.01082 122.72253 -105.23739 12.88268 -1.56679 18.19596 7.88285 -10.02142 -13.02436 2.94122 -2.64399 -1.43354 77.59313 6.06152 7.45944 -32.85898 -8.12852 3.11367 2.3248
-0.15627 -0.02489 -1.55551 1262.79458 -51.66079 0.00898 47.74661 1.48537 9.75853 5.61541 -8.91827 -0.83079 23.03108 1.22459 3.79253 137.62436 54.86101 7.62606 -6.67989 -20.31763 -0.85636 -18.40749 122.24884 -103.35357 12.84439 -1.21848 17.87138 7.1653 -9.33855 -14.32367 0.07309 -2.73916 -1.65664 77.32562 5.50975 7.40196 -34.1496 -8.19104 3.14428 2.34255
-0.18126 -0.02993 -1.55331 1263.05393 -52.14568 0.70643 48.71105 1.11545 10.38566 5.83345 -9.18739 -0.83079 23.89657 0.56131 3.55876 137.62436 55.18191 7.43343 -5.74077 -20.03795 -0.73886 -18.79169 121.65412 -101.58162 13.1183 -0.8358 17.29278 6.44271 -8.62391 -15.14847 -3.21876 -2.84191 -1.90978 77.24231 4.91962 7.21511 -35.59583 -8.28682 3.19875 2.37419
-0.2058 -0.03407 -1.55111 1263.34945 -52.45149 1.39018 49.48354 0.76104 10.89951 5.99845 -9.44572 -0.83079 25.01983 -0.01767 3.47666 137.62437 55.41507 6.74684 -4.47948 -19.60358 -0.54964 -19.20262 121.30032 -99.49765 12.75169 -0.51617 17.31646 5.69342 -7.97132 -17.07793 -5.98089 -2.93494 -2.12498 76.72946 4.3844 7.30301 -36.72922 -8.31759 3.19825 2.37402
-0.22905 -0.03589 -1.54906 1263.75795 -52.25607 2.04621 49.72058 0.43807 11.1157 6.00666 -9.68768 -0.83079 26.94012 -0.37346 3.8349 137.62438 55.37751 4.55554 -2.21195 -18.70428 -0.12068 -19.73899 121.64094 -96.42898 10.46478 -0.35296 18.91092 4.87816 -7.48762 -22.01143 -6.93837 -2.98372 -2.20499 75.08135 4.01474 8.18073 -36.99238 -8.15865 3.04382 2.28484
-0.25176 -0.03683 -1.54701 1264.19886 -51.88042 2.67774 49.75773 0.13593 11.21016 5.96306 -9.91722 -0.83079 29.09169 -0.63637 4.34255 137.6244 55.25394 1.89891 0.3437 -17.65899 0.36623 -20.28881 122.2225 -93.11277 7.56674 -0.26181 21.10454 4.04885 -7.07122 -28.01838 -7.31936 -3.02399 -2.24498 73.00902 3.70643 9.32335 -36.93037 -7.93467 2.83617 2.16481
-0.27459 -0.03816 -1.54496 1264.61184 -51.58888 3.29736 49.87453 -0.16258 11.34224 5.95047 -10.14604 -0.83079 31.06017 -0.92246 4.7694 137.62442 55.18156 -0.44034 2.66418 -16.71028 0.78235 -20.78829 122.6821 -90.08196 5.06123 -0.16118 23.0362 3.24962 -6.63037 -33.48296 -7.96785 -3.07674 -2.30845 71.13037 3.37759 10.31613 -37.00211 -7.74423 2.65792 2.06165
-0.29801 -0.03951 -1.54291 1265.07942 -51.28795 4.01923 50.04136 -0.51817 11.55344 5.90741 -10.40206 -0.83079 33.36553 -1.29038 5.25113 137.62444 55.05837 -3.22739 5.4324 -15.63392 1.38195 -21.47139 123.19285 -86.31469 2.07472 0.03712 24.93486 2.34466 -6.15832 -39.21203 -8.64197 -3.09521 -2.35367 69.23894 3.01274 11.43863 -37.13706 -7.53753 2.45688 1.94599
-0.32003 -0.0406 -1.54087 1265.44314 -50.96439 4.51935 50.05595 -0.74883 11.56717 5.91413 -10.59767 -0.83079 35.01876 -1.46636 5.65326 137.62446 55.02144 -5.19358 7.33205 -14.78796 1.62111 -21.78073 123.65472 -84.0142 -0.06176 0.01765 27.04048 1.65827 -5.7728 -44.61865 -9.10712 -3.18106 -2.42516 67.27833 2.74041 12.34888 -37.06163 -7.3491 2.29096 1.84922
-0.33834 -0.04119 -1.53883 1265.49058 -50.61527 4.42604 49.69281 -0.64465 11.09128 6.08289 -10.63771 -0.83079 34.84569 -1.12034 5.80656 137.62445 55.23077 -4.75975 6.78204 -14.62451 0.77196 -21.00117 123.92461 -85.96196 0.36549 -0.61735 29.5704 1.5855 -5.56496 -49.03243 -9.1344 -3.46987 -2.58722 65.21225 2.69624 12.64488 -36.48411 -7.22628 2.23509 1.81205
-0.35522 -0.04153 -1.53681 1265.43625 -50.25093 4.1076 49.18411 -0.41443 10.4161 6.30128 -10.6158 -0.83079 34.00299 -0.58638 5.87329 137.62443 55.53144 -3.48765 5.34494 -14.69641 -0.42783 -19.85483 124.13714 -89.37264 1.65774 -1.46351 32.28585 1.73305 -5.4494 -53.04929 -8.96464 -3.82386 -2.77506 63.09575 2.74608 12.71151 -35.70568 -7.12414 2.2165 1.79502
